HIERARCHY
ROOT Pelvis
{
	OFFSET 0.000000 0.000000 0.000000
	CHANNELS 6 Xposition Yposition Zposition Xrotation Yrotation Zrotation
	JOINT LeftUpLeg_virtual
	{
		OFFSET 0.000000 0.000000 0.000000
		CHANNELS 3 Xrotation Yrotation Zrotation
		JOINT LeftUpLeg
		{
			OFFSET 18.735201 -5.666702 -4.541200
			CHANNELS 3 Xrotation Yrotation Zrotation
			JOINT LeftLeg
			{
				OFFSET -0.021200 -31.938179 0.493100
				CHANNELS 3 Xrotation Yrotation Zrotation
				JOINT LeftFoot
				{
					OFFSET 0.021200 -31.938179 -4.336299
					CHANNELS 3 Xrotation Yrotation Zrotation
					JOINT LeftToeBase
					{
						OFFSET 0.943001 -26.722000 15.023500
						CHANNELS 3 Xrotation Yrotation Zrotation
						End Site
						{
							OFFSET 0 0 0
						}
					}
				}
			}
		}
	}
	JOINT RightUpLeg_virtual
	{
		OFFSET 0.000000 0.000000 0.000000
		CHANNELS 3 Xrotation Yrotation Zrotation
		JOINT RightUpLeg
		{
			OFFSET -18.735201 -5.666702 -4.541200
			CHANNELS 3 Xrotation Yrotation Zrotation
			JOINT RightLeg
			{
				OFFSET 0.018946 -31.938133 0.493100
				CHANNELS 3 Xrotation Yrotation Zrotation
				JOINT RightFoot
				{
					OFFSET -0.018946 -31.938126 -4.336299
					CHANNELS 3 Xrotation Yrotation Zrotation
					JOINT RightToeBase
					{
						OFFSET -0.943001 -26.722004 15.023500
						CHANNELS 3 Xrotation Yrotation Zrotation
						End Site
						{
							OFFSET 0 0 0
						}
					}
				}
			}
		}
	}
	JOINT Hips_virtual
	{
		OFFSET 0.000000 0.000000 0.000000
		CHANNELS 3 Xrotation Yrotation Zrotation
		JOINT Hips
		{
			OFFSET -0.000000 -0.000000 -0.000000
			CHANNELS 3 Xrotation Yrotation Zrotation
			JOINT Spine
			{
				OFFSET 0.000000 10.199997 -0.299500
				CHANNELS 3 Xrotation Yrotation Zrotation
				JOINT Spine1
				{
					OFFSET 0.000000 11.900002 -1.516600
					CHANNELS 3 Xrotation Yrotation Zrotation
					JOINT Spine2
					{
						OFFSET 0.000000 13.600006 -2.842500
						CHANNELS 3 Xrotation Yrotation Zrotation
						JOINT Neck_virtual
						{
							OFFSET 0.000000 0.000000 0.000000
							CHANNELS 3 Xrotation Yrotation Zrotation
							JOINT Neck
							{
								OFFSET 0.000000 9.624100 -2.890100
								CHANNELS 3 Xrotation Yrotation Zrotation
								JOINT Head
								{
									OFFSET 0.000000 14.068802 -1.351900
									CHANNELS 3 Xrotation Yrotation Zrotation
									End Site
									{
										OFFSET 0 0 0
									}
								}
							}
						}
						JOINT LeftShoulder_virtual
						{
							OFFSET 0.000000 0.000000 0.000000
							CHANNELS 3 Xrotation Yrotation Zrotation
							JOINT LeftShoulder
							{
								OFFSET 15.263000 10.923401 -0.547700
								CHANNELS 3 Xrotation Yrotation Zrotation
								JOINT LeftArm
								{
									OFFSET 25.438599 -2.830597 -13.032500
									CHANNELS 3 Xrotation Yrotation Zrotation
									JOINT LeftForeArm
									{
										OFFSET 29.960503 0.000000 0.000000
										CHANNELS 3 Xrotation Yrotation Zrotation
										JOINT LeftHand
										{
											OFFSET 27.849251 0.000000 0.000000
											CHANNELS 3 Xrotation Yrotation Zrotation
											End Site
											{
												OFFSET 0 0 0
											}
										}
									}
								}
							}
						}
						JOINT RightShoulder_virtual
						{
							OFFSET 0.000000 0.000000 0.000000
							CHANNELS 3 Xrotation Yrotation Zrotation
							JOINT RightShoulder
							{
								OFFSET -15.263000 10.923401 -0.547700
								CHANNELS 3 Xrotation Yrotation Zrotation
								JOINT RightArm
								{
									OFFSET -25.438599 -2.830597 -13.032500
									CHANNELS 3 Xrotation Yrotation Zrotation
									JOINT RightForeArm
									{
										OFFSET -29.960503 0.000000 0.000000
										CHANNELS 3 Xrotation Yrotation Zrotation
										JOINT RightHand
										{
											OFFSET -27.849251 0.000000 0.000000
											CHANNELS 3 Xrotation Yrotation Zrotation
											End Site
											{
												OFFSET 0 0 0
											}
										}
									}
								}
							}
						}
					}
				}
			}
		}
	}
}
MOTION
Frames: 7
Frame Time: 0.03333333
-1.809750 133.044266 15.484441 0.000000 0.000000 0.000000 -20.869814 -33.423968 2.328879 -68.533305 -5.568784 22.448127 66.926135 -1.518935 -1.661685 11.429848 -1.820569 -9.507937 0.000000 0.000000 0.000000 -29.517947 -6.251193 4.106262 -69.642487 -2.010149 -13.361175 112.027281 -4.091133 -1.394191 40.785563 -2.355160 4.441639 0.000000 0.000000 0.000000 3.737467 -13.190171 1.750904 14.534747 -5.157594 5.539967 16.383682 -4.875141 -5.976538 9.594120 -1.208639 -4.313907 0.000000 0.000000 0.000000 -4.125503 0.208967 0.204936 -4.151959 1.347305 1.341556 0.000000 0.000000 0.000000 2.853951 -2.510435 1.204254 1.359067 -15.620631 13.266126 -66.424908 -10.203825 -9.441854 -19.861268 -43.091144 4.038750 0.000000 0.000000 0.000000 1.443247 -0.653530 -3.705932 -0.230788 2.319449 -14.653088 -65.509287 -15.764425 14.549305 -46.574107 55.005969 29.494068 0.000000 0.000000 0.000000 
-1.832908 132.860306 16.694958 0.000000 0.000000 0.000000 -20.647691 -34.020083 2.189208 -68.201529 -5.627343 22.296038 66.751883 -1.386446 -1.662176 11.321030 -1.672862 -9.415108 0.000000 0.000000 0.000000 -29.304985 -6.524864 4.147404 -69.421729 -2.149968 -13.266318 111.427850 -3.946448 -1.307457 40.386202 -2.268167 4.743425 0.000000 0.000000 0.000000 3.635365 -13.096469 1.778473 14.264719 -5.324106 5.726420 16.152484 -4.864806 -6.040949 9.537328 -1.189470 -4.346088 0.000000 0.000000 0.000000 -3.978173 0.198415 0.170890 -4.091149 1.351921 1.365748 0.000000 0.000000 0.000000 2.935440 -2.499041 1.028408 1.310281 -15.652447 12.981672 -66.846734 -10.117774 -9.892808 -20.130190 -43.286884 3.597366 0.000000 0.000000 0.000000 1.522436 -0.538002 -3.659372 -0.137644 2.573408 -14.547873 -65.325828 -15.697300 14.425330 -47.129979 55.175446 30.313145 0.000000 0.000000 0.000000 
-1.888260 132.487122 18.987446 0.000000 0.000000 0.000000 -20.196641 -35.151374 1.955332 -67.541774 -5.746227 22.021075 66.399937 -1.137533 -1.669748 11.084805 -1.389900 -9.250886 0.000000 0.000000 0.000000 -28.866357 -7.140044 4.179078 -68.967944 -2.428636 -13.114687 110.175685 -3.669218 -1.140440 39.520957 -2.108243 5.328225 0.000000 0.000000 0.000000 3.431365 -12.948127 1.831349 13.750148 -5.614267 6.076760 15.708390 -4.829182 -6.159228 9.428876 -1.150408 -4.409451 0.000000 0.000000 0.000000 -3.694571 0.186264 0.098916 -3.968251 1.359124 1.408924 0.000000 0.000000 0.000000 3.092987 -2.470331 0.691011 1.220977 -15.704792 12.424566 -67.571478 -9.957447 -10.695135 -20.600405 -43.660437 2.802378 0.000000 0.000000 0.000000 1.678254 -0.319347 -3.582944 0.038426 3.050268 -14.376664 -65.000711 -15.582800 14.166422 -48.059602 55.398251 31.736419 0.000000 0.000000 0.000000 
-1.992498 131.911453 22.145462 0.000000 0.000000 0.000000 -19.508885 -36.717359 1.705408 -66.568048 -5.930088 21.674941 65.875829 -0.799880 -1.692851 10.700127 -0.995682 -9.047944 0.000000 0.000000 0.000000 -28.181577 -8.196018 4.127400 -68.259367 -2.844103 -12.967230 108.196207 -3.281101 -0.903974 38.095209 -1.901477 6.160195 0.000000 0.000000 0.000000 3.130995 -12.806193 1.905947 13.028269 -5.959328 6.549655 15.089969 -4.746453 -6.313456 9.278616 -1.090694 -4.501496 0.000000 0.000000 0.000000 -3.294554 0.186876 -0.017576 -3.783980 1.365918 1.461569 0.000000 0.000000 0.000000 3.315386 -2.415178 0.217794 1.102528 -15.757149 11.613843 -68.409925 -9.745285 -11.688550 -21.163030 -44.181536 1.801005 0.000000 0.000000 0.000000 1.906343 -0.020333 -3.504481 0.279138 3.689618 -14.204520 -64.603016 -15.452261 13.758019 -49.058776 55.509385 33.399540 0.000000 0.000000 0.000000 
-2.165384 131.109375 25.925880 0.000000 0.000000 0.000000 -18.585346 -38.609126 1.527552 -65.313650 -6.186508 21.319191 65.210637 -0.406596 -1.735689 10.165686 -0.523927 -8.836427 0.000000 0.000000 0.000000 -27.232253 -9.772300 3.934092 -67.271039 -3.393293 -12.884598 105.440212 -2.808946 -0.610657 36.040972 -1.681041 7.189807 0.000000 0.000000 0.000000 2.752300 -12.727125 1.998975 12.133829 -6.291852 7.094412 14.354968 -4.598636 -6.483011 9.099477 -1.010067 -4.617289 0.000000 0.000000 0.000000 -2.803088 0.214920 -0.185687 -3.545037 1.369830 1.511640 0.000000 0.000000 0.000000 3.585398 -2.324926 -0.358805 0.962019 -15.782868 10.569091 -69.171744 -9.506737 -12.709620 -21.708445 -44.815391 0.753765 0.000000 0.000000 0.000000 2.200857 0.330107 -3.453960 0.561314 4.409083 -14.099721 -64.205957 -15.333992 13.193151 -49.816900 55.382206 34.914370 0.000000 0.000000 0.000000 
-2.421654 130.046936 30.113937 0.000000 0.000000 0.000000 -17.445686 -40.735453 1.493950 -63.837482 -6.523736 21.009401 64.469698 0.008263 -1.794685 9.514103 -0.015746 -8.635005 0.000000 0.000000 0.000000 -26.013887 -11.888472 3.586181 -65.985119 -4.071972 -12.906133 101.923272 -2.280200 -0.273245 33.359843 -1.479514 8.358767 0.000000 0.000000 0.000000 2.329700 -12.738837 2.108891 11.096834 -6.573053 7.665467 13.571728 -4.377950 -6.648822 8.904329 -0.908344 -4.748639 0.000000 0.000000 0.000000 -2.246652 0.281317 -0.410277 -3.265861 1.370014 1.547082 0.000000 0.000000 0.000000 3.880224 -2.193873 -1.004684 0.796951 -15.752423 9.305998 -69.722414 -9.256010 -13.641983 -22.163505 -45.529795 -0.211995 0.000000 0.000000 0.000000 2.553161 0.702826 -3.454570 0.859657 5.120524 -14.110084 -63.864304 -15.236144 12.482309 -50.141921 54.982579 36.006257 0.000000 0.000000 0.000000 
-2.762366 128.684677 34.554928 0.000000 0.000000 0.000000 -16.133597 -43.033552 1.641548 -62.222846 -6.946813 20.781296 63.746251 0.410602 -1.859723 8.810001 0.482705 -8.451910 0.000000 0.000000 0.000000 -24.542625 -14.488870 3.123421 -64.400870 -4.873645 -13.039124 97.744023 -1.719886 0.095504 30.137366 -1.321384 9.605070 0.000000 0.000000 0.000000 1.909767 -12.832857 2.236370 9.951872 -6.808514 8.236935 12.804512 -4.085324 -6.795807 8.702511 -0.784079 -4.884121 0.000000 0.000000 0.000000 -1.650680 0.391776 -0.691386 -2.966704 1.367602 1.558518 0.000000 0.000000 0.000000 4.173238 -2.019393 -1.687876 0.595440 -15.636357 7.838281 -70.007649 -8.983946 -14.441439 -22.510268 -46.300288 -1.031477 0.000000 0.000000 0.000000 2.949378 1.074783 -3.517008 1.148544 5.752635 -14.247190 -63.602701 -15.135373 11.656035 -50.015245 54.370929 36.580731 0.000000 0.000000 0.000000 
